<?xml version="1.0" encoding="UTF-8" standalone="no"?>
<!DOCTYPE svg PUBLIC "-//W3C//DTD SVG 1.1//EN" "http://www.w3.org/Graphics/SVG/1.1/DTD/svg11.dtd">
<svg version="1.1" xmlns="http://www.w3.org/2000/svg" xmlns:xlink="http://www.w3.org/1999/xlink" preserveAspectRatio="xMidYMid meet" viewBox="0 0 640 640" width="640" height="640"><defs><path d="M0 0L640 0L640 640L0 640L0 0Z" id="i3pPcyc7ZD"></path><path d="M571.3 37.65C588.45 37.65 602.35 51.55 602.35 68.7C602.35 173.43 602.35 456.59 602.35 561.32C602.35 578.47 588.45 592.37 571.3 592.37C464.57 592.37 175.43 592.37 68.7 592.37C51.55 592.37 37.65 578.47 37.65 561.32C37.65 456.59 37.65 173.43 37.65 68.7C37.65 51.55 51.55 37.65 68.7 37.65C175.43 37.65 464.57 37.65 571.3 37.65Z" id="ajM9vmCgu"></path><path d="M404.14 322.68L263.53 398.18L263.53 239.72L404.14 322.68Z" id="d4uhY0rBq"></path></defs><g><g><g><use xlink:href="#i3pPcyc7ZD" opacity="1" fill="#000000" fill-opacity="1"></use></g><g><use xlink:href="#ajM9vmCgu" opacity="1" fill="#9c1c26" fill-opacity="1"></use><g><use xlink:href="#ajM9vmCgu" opacity="1" fill-opacity="0" stroke="#990808" stroke-width="1" stroke-opacity="1"></use></g></g><g><use xlink:href="#d4uhY0rBq" opacity="1" fill="#ffffff" fill-opacity="1"></use><g><use xlink:href="#d4uhY0rBq" opacity="1" fill-opacity="0" stroke="#ffffff" stroke-width="1" stroke-opacity="1"></use></g></g></g></g></svg>